<!--?xml version="1.0" encoding="utf-8"?-->
<!-- Generator: Adobe Illustrator 18.0.0, SVG Export Plug-In . SVG Version: 6.00 Build 0)  -->

<svg version="1.1" id="_x32_" xmlns="http://www.w3.org/2000/svg" xmlns:xlink="http://www.w3.org/1999/xlink" x="0px" y="0px" viewBox="0 0 512 512" style="width: 32px; height: 32px; opacity: 1;" xml:space="preserve">
<style type="text/css">
	.st0{fill:#4B4B4B;}
</style>
<g>
	<path class="st0" d="M511.852,82.25c-0.035-0.273-0.031-0.628-0.09-0.847c-0.035-0.106-0.113-0.133-0.154-0.226
		c-0.172-0.438-0.351-0.867-0.658-0.976c-0.041-0.016-0.111,0.043-0.154,0.035c-0.092-0.055-0.121-0.227-0.225-0.262
		c-1.636,0-4.358,2.823-9.388,9.74l-2.261,2.777c-4.694,5.784-10.532,12.981-18.222,19.725
		c-9.572,8.459-20.561,15.504-31.785,20.378c-13.754,6.08-26.814,8.455-35.342,9.372c-1.25,0.121-2.402,0.184-3.554,0.25
		l-0.533,0.184c-0.096,0.004-0.194,0.012-0.287,0.02c7.892-5.093,14.873-10.759,20.718-16.859
		c10.47-10.767,19.151-24.295,24.447-38.092c5.174-13.282,6.397-25.685,6.514-33.765c-0.359-8.572-1.679-13.743-3.593-13.832
		c-1.676,0-3.491,3.401-6.475,12.126l-1.359,3.359c-2.777,6.904-6.233,15.492-11.583,24.181
		c-6.65,10.908-15.074,20.882-24.361,28.848c-11.357,9.868-23.135,15.984-31.012,19.378l0.063,0.145l-0.002,0.004c0,0,0,0-0.002,0
		l-0.934,0.207c-3.565-0.742-7.377-1.48-11.724-2.23l-2.187-0.367c-1.355-0.234-2.839-0.371-4.335-0.464
		c-0.498-0.066-0.906-0.148-1.433-0.207c6.137-8.353,11.144-17.304,14.477-25.9c5.217-13.274,6.483-25.673,6.623-33.746
		c-0.336-8.568-1.64-13.742-3.558-13.844c-1.672,0-3.495,3.398-6.506,12.106l-1.375,3.362c-2.796,6.889-6.28,15.465-11.657,24.138
		c-6.69,10.888-15.148,20.834-24.455,28.766c-1.156,1-2.359,1.918-3.558,2.839l-0.972,0.793c-1.258-0.058-2.511-0.117-3.792-0.117
		c-4.823,0-9.592,0.379-14.664,0.781l-17.648,1.422c-4.558,0.367-9.275,0.746-13.688,1.671
		c-39.576,5.405-83.143,18.792-125.996,38.713c-27.665,13.496-48.605,25.255-67.897,38.131
		c-12.754,8.471-23.744,16.301-33.589,23.936c-2.886,2.136-5.721,4.401-8.572,6.756l-2.741,2.222
		c-1.793,1.445-3.894,3.132-7.994,6.702l-14.976,13.61L0,275.975l9.002,11.38c5.663,7.213,11.524,14.672,18.175,22.116l7.186,7.986
		l4.159,4.39l7.834,7.986c5.3,5.249,10.646,10.349,16.043,15.293c10.337,9.466,21.467,18.823,33.082,27.806
		c20.94,16.355,43.88,31.453,68.178,44.871c51.64,28.61,98.979,41.724,129.6,47.691c23.354,4.405,46.113,6.635,67.655,6.635
		c8.873,0,17.308-0.379,25.076-1.136c11.814-0.91,20.62-2.913,25.927-4.436c4.245-1.226,14.184-4.108,13.848-12.556
		c-0.312-8.096-9.685-10.572-14.184-11.762c-2.624-0.699-5.899-1.301-9.511-1.847c-1.185-0.219-2.298-0.434-3.564-0.66
		c35.583-17.597,59.862-76.618,59.06-143.659c-0.484-40.494-10.54-78.516-27.251-105.669c-0.17-0.274-0.351-0.527-0.521-0.801
		c-1.154-1.847-2.326-3.667-3.542-5.409c-4.3-6.186-8.945-11.665-13.878-16.347c0.373-0.02,3.118-0.192,3.972-0.274
		c14.758-1.57,30.094-6.444,43.192-13.727c13.172-7.202,25.455-17.57,34.589-29.192c8.861-11.173,13.688-22.662,16.179-30.344
		C511.774,88.722,512.283,84.641,511.852,82.25z M422.148,247.198c-1.89,2.663-4.265,4.304-6.877,4.741
		c-0.488,0.086-0.98,0.125-1.472,0.125c-8.299,0-16.468-11.149-19.011-25.939c-1.781-10.392-0.312-20.487,3.839-26.337
		c1.89-2.664,4.268-4.304,6.877-4.745c0.488-0.082,0.98-0.121,1.472-0.121c8.295,0,16.468,11.15,19.011,25.939
		C427.768,231.252,426.299,241.344,422.148,247.198z M304.947,418.545c-39.674-12.548-77.398-29.797-112.124-51.264
		c-21.409-13.212-41.447-27.43-59.563-42.267c-10.279-8.338-20.081-16.87-29.13-25.357c-4.772-4.468-9.494-9.048-14.094-13.653
		l-4.401-4.3l-0.322-0.332c1.949-1.632,3.935-3.253,6.075-4.886c8.627-6.912,18.101-13.977,29.817-22.244
		c20.171-14.293,40.638-26.099,59.747-36.717c36.924-19.546,74.84-34.64,109.652-43.657c19.132-5.065,38.158-8.962,59.86-12.27
		c1.3-0.012,2.714-0.074,4.226-0.184c-15.969,21.983-32.726,74.325-31.969,137.805c0.59,49.378,10.57,95.519,26.099,122.325
		c2.124,3.737,4.327,7.076,6.592,9.966C337.712,427.804,321.2,423.567,304.947,418.545z" style="fill: rgb(255, 255, 255);"></path>
</g>
</svg>
