<svg version="1.1" width="800" height="1049" viewBox="0 0 800 1049" xmlns="http://www.w3.org/2000/svg" xmlns:xlink="http://www.w3.org/1999/xlink" stroke-linecap="round" stroke-linejoin="round" overflow="hidden"><style>
.MsftOfcThm_Accent6_lumMod_75_Fill {
 fill:#548235; 
}
.MsftOfcThm_Background1_Stroke {
 stroke:#FFFFFF; 
}
</style>
<g id="林班合体"><path d=" M 409.34 90.3 L 407.71 103.29 L 406.08 102.98 L 379.61 97.97 L 377.68 97.6 L 377.43 95.53 L 371.36 44.68 L 371.18 43.21 L 377.68 21.3 L 401.22 33.47 L 406.9 44.03 L 408.52 57.01 L 418.27 72.44 L 419.08 85.43 L 409.34 90.3 Z" stroke="#FFFFFF" stroke-width="4.0201" stroke-dasharray="" stroke-dashoffset="1" stroke-opacity="1" fill="#548235" fill-opacity="1"/><path d=" M 377.43 95.53 L 370.37 94.36 L 357.59 90.6 L 356.57 90.3 L 357.38 78.93 L 357.87 78.61 L 364.69 74.06 L 369.56 50.52 L 371.36 44.68 L 377.43 95.53 Z" stroke="#FFFFFF" stroke-width="4.0201" stroke-dasharray="" stroke-dashoffset="1" stroke-opacity="1" fill="#548235" fill-opacity="1"/><path d=" M 402.76 112.94 L 383.77 112.23 L 383.36 112.22 L 383.31 112.05 L 353.32 108.97 L 346.04 103.14 L 345.2 102.48 L 351.7 93.55 L 357.59 90.6 L 370.37 94.36 L 377.43 95.53 L 377.68 97.6 L 379.61 97.97 L 406.08 102.98 L 403.65 107.35 L 405.28 113.03 L 402.76 112.94 Z" stroke="#FFFFFF" stroke-width="4.0201" stroke-dasharray="" stroke-dashoffset="1" stroke-opacity="1" fill="#548235" fill-opacity="1"/><path d=" M 402.76 112.94 L 400.41 178.78 L 399.23 174.08 L 398.78 185.28 L 393.1 206.39 L 395.54 259.96 L 387.42 259.96 L 386.93 258.94 L 386 256.97 L 380.11 244.54 L 369.56 218.56 L 359.82 199.08 L 357.38 187.71 L 357.38 181.22 L 360.19 180.22 L 380.11 173.1 L 380.11 166.61 L 354.95 153.62 L 345.2 160.11 L 328.41 148.92 L 328.16 148.75 L 324.91 140.63 L 323.28 128.45 L 328.16 120.33 L 338.71 102.48 L 346.04 103.14 L 353.32 108.97 L 383.31 112.05 L 383.36 112.22 L 383.77 112.23 L 402.76 112.94 Z" stroke="#FFFFFF" stroke-width="4.0201" stroke-dasharray="" stroke-dashoffset="1" stroke-opacity="1" fill="#548235" fill-opacity="1"/><path d=" M 698.67 378.34 L 691.03 389.04 L 660.18 384.17 L 656.12 410.96 L 657.75 416.64 L 656.82 425.21 L 653.69 453.98 L 640.7 471.84 L 639.29 469.49 L 635.96 463.95 L 635.02 464.54 L 617.97 458.86 L 587.12 432.88 L 563.58 415.83 L 551.4 410.96 L 543.28 401.22 L 531.92 385.79 L 510.35 369.79 L 507.37 367.58 L 514.06 371.18 L 516.45 365.6 L 514.06 363.87 L 514.49 363.22 L 520.55 354.13 L 522.18 320.04 L 506.75 305.43 L 488.89 277.01 L 462.91 255.91 L 455.61 249.41 L 446.68 218.56 L 445.37 202.26 L 445.06 198.27 L 441.81 180.41 L 442.62 165.8 L 434.5 158.49 L 425.57 157.68 L 414.61 159.14 L 413.39 159.3 L 413.39 137.38 L 415.83 124.39 L 418.27 100.85 L 424.76 90.3 L 445.06 108.16 L 459.67 122.77 L 469.41 133.32 L 468.6 143.88 L 486.46 162.55 L 488.08 175.54 L 509.19 198.27 L 518.12 203.95 L 529.48 224.25 L 529.48 251.85 L 527.05 285.94 L 564.39 314.36 L 601.73 333.84 L 637.45 341.14 L 660.18 360.63 L 699.15 377.68 L 698.67 378.34 Z" stroke="#FFFFFF" stroke-width="4.0201" stroke-dasharray="" stroke-dashoffset="1" stroke-opacity="1" fill="#548235" fill-opacity="1"/><path d=" M 411.86 208.9 L 409.34 208.82 L 409.34 195.02 L 409.34 177.97 L 414.61 159.14 L 425.57 157.68 L 434.5 158.49 L 442.62 165.8 L 441.81 180.41 L 445.06 198.27 L 445.37 202.26 L 435.31 209.63 L 411.86 208.9 Z" stroke="#FFFFFF" stroke-width="4.0201" stroke-dasharray="" stroke-dashoffset="1" stroke-opacity="1" fill="#548235" fill-opacity="1"/><path d=" M 445.37 202.26 L 446.68 218.56 L 455.61 249.41 L 462.91 255.91 L 488.89 277.01 L 506.75 305.43 L 522.18 320.04 L 520.55 354.13 L 514.49 363.22 L 514.06 363.87 L 516.45 365.6 L 514.06 371.18 L 507.37 367.58 L 492.95 359.82 L 477.53 349.26 L 466.41 340.37 L 457.23 333.03 L 439.37 318.41 L 438.48 315.35 L 441 317.6 L 440.4 301.48 L 441.12 302.11 L 441.54 296.22 L 442.62 281.07 L 442.62 267.27 L 437.75 245.35 L 437.75 229.12 L 433.69 224.25 L 412.98 223.45 L 412.58 223.43 L 411.86 208.9 L 435.31 209.63 L 445.37 202.26 Z" stroke="#FFFFFF" stroke-width="4.0201" stroke-dasharray="" stroke-dashoffset="1" stroke-opacity="1" fill="#548235" fill-opacity="1"/><path d=" M 410.17 263.99 L 410.96 225.87 L 412.98 223.45 L 433.69 224.25 L 437.75 229.12 L 437.75 245.35 L 442.62 267.27 L 442.62 281.07 L 441.54 296.22 L 441 300.55 L 426.38 285.13 L 410.15 264.84 L 410.17 263.99 Z" stroke="#FFFFFF" stroke-width="4.0201" stroke-dasharray="" stroke-dashoffset="1" stroke-opacity="1" fill="#548235" fill-opacity="1"/><path d=" M 441.54 296.22 L 441.12 302.11 L 440.4 301.48 L 441 317.6 L 438.48 315.35 L 425.57 303.8 L 410.56 288.27 L 405.13 282.65 L 402.03 279.45 L 403.39 277.86 L 409.78 270.41 L 407.71 268.08 L 410.17 263.99 L 410.15 264.84 L 426.38 285.13 L 441 300.55 L 441.54 296.22 Z" stroke="#FFFFFF" stroke-width="4.0201" stroke-dasharray="" stroke-dashoffset="1" stroke-opacity="1" fill="#548235" fill-opacity="1"/><path d=" M 611.81 501.54 L 604.98 499.45 L 629.33 475.09 L 639.29 469.49 L 640.7 471.84 L 653.69 453.98 L 656.82 425.21 L 657.75 416.64 L 656.12 410.96 L 660.18 384.17 L 691.03 389.04 L 698.67 378.34 L 712.95 385.79 L 725.94 389.85 L 767.22 403.35 L 768.15 403.65 L 758.41 415.83 L 753.54 444.24 L 784.34 460.83 L 785.2 461.29 L 785.2 469.41 L 782.56 468.21 L 781.95 484.02 L 773.83 506.75 L 770.89 505.77 L 759.22 501.88 L 716.2 514.87 L 677.23 518.93 L 644.76 511.62 L 611.81 501.54 Z" stroke="#FFFFFF" stroke-width="4.0201" stroke-dasharray="" stroke-dashoffset="1" stroke-opacity="1" fill="#548235" fill-opacity="1"/><path d=" M 767.22 403.35 L 770.59 402.84 L 790.07 410.96 L 799 420.7 L 792.51 438.56 L 784.34 460.83 L 753.54 444.24 L 758.41 415.83 L 768.15 403.65 L 767.22 403.35 Z" stroke="#FFFFFF" stroke-width="4.0201" stroke-dasharray="" stroke-dashoffset="1" stroke-opacity="1" fill="#548235" fill-opacity="1"/><path d=" M 507.37 367.58 L 510.35 369.79 L 531.92 385.79 L 543.28 401.22 L 551.4 410.96 L 563.58 415.83 L 587.12 432.88 L 617.97 458.86 L 635.02 464.54 L 635.96 463.95 L 639.29 469.49 L 629.33 475.09 L 604.98 499.45 L 611.81 501.54 L 562.77 497.82 L 546.12 492.27 L 545.72 492.14 L 522.76 485.18 L 514.87 483.21 L 498.63 479.15 L 493.64 477.07 L 488.89 475.09 L 475.09 455.61 L 455.61 426.38 L 436.13 410.15 L 415.02 404.46 L 402.16 402.2 L 387.42 399.59 L 361.44 400.41 L 351.15 395.83 L 346.83 393.91 L 353.32 378.49 L 366.31 353.32 L 385.79 342.77 L 403.65 354.13 L 426.38 359 L 451.55 361.44 L 462.91 355.76 L 466.41 340.37 L 477.53 349.26 L 492.95 359.82 L 507.37 367.58 Z" stroke="#FFFFFF" stroke-width="4.0201" stroke-dasharray="" stroke-dashoffset="1" stroke-opacity="1" fill="#548235" fill-opacity="1"/><path d=" M 403.39 277.86 L 402.03 279.45 L 405.13 282.65 L 410.56 288.27 L 425.57 303.8 L 438.48 315.35 L 439.37 318.41 L 457.23 333.03 L 466.41 340.37 L 462.91 355.76 L 451.55 361.44 L 426.38 359 L 403.65 354.13 L 385.79 342.77 L 366.31 353.32 L 353.32 378.49 L 346.83 393.91 L 351.15 395.83 L 345.2 395.54 L 325.72 379.3 L 313.48 367.74 L 311.11 365.5 L 294.87 344.39 L 286.74 335.61 L 274.58 322.47 L 264.09 314.24 L 263.21 313.54 L 264.55 313.01 L 252.66 304.61 L 235.61 283.51 L 228.3 276.2 L 221.81 256.72 L 221.81 234.04 L 221.81 216.13 L 241.73 170.93 L 242.92 168.23 L 249.41 174.73 L 250.22 196.64 L 248.6 219.37 L 248.6 236.42 L 251.85 246.98 L 262.4 255.09 L 279.45 259.96 L 291.62 255.09 L 303.8 248.6 L 308.67 236.42 L 312.73 224.25 L 319.23 215.32 L 334.65 226.68 L 346.83 239.67 L 359 252.66 L 367.93 262.4 L 380.92 272.14 L 382.8 276.2 L 396.35 276.2 L 403.39 277.86 Z" stroke="#FFFFFF" stroke-width="4.0201" stroke-dasharray="" stroke-dashoffset="1" stroke-opacity="1" fill="#548235" fill-opacity="1"/><path d=" M 360.19 180.22 L 326.53 178.78 L 326.2 178.09 L 325.99 177.65 L 319.23 163.36 L 328.41 148.92 L 345.2 160.11 L 354.95 153.62 L 380.11 166.61 L 380.11 173.1 L 360.19 180.22 Z" stroke="#FFFFFF" stroke-width="4.0201" stroke-dasharray="" stroke-dashoffset="1" stroke-opacity="1" fill="#548235" fill-opacity="1"/><path d=" M 386 256.97 L 382.55 255.91 L 366.31 241.29 L 342.77 212.88 L 324.1 198.27 L 311.11 205.57 L 301.37 218.56 L 300.78 217.91 L 294.06 210.44 L 295.68 195.83 L 325.99 177.65 L 326.2 178.09 L 326.53 178.78 L 360.19 180.22 L 357.38 181.22 L 357.38 187.71 L 359.82 199.08 L 369.56 218.56 L 380.11 244.54 L 386 256.97 Z" stroke="#FFFFFF" stroke-width="4.0201" stroke-dasharray="" stroke-dashoffset="1" stroke-opacity="1" fill="#548235" fill-opacity="1"/><path d=" M 300.78 217.91 L 283.51 236.42 L 267.27 234.8 L 267.27 193.4 L 264.02 165.8 L 246.98 156.05 L 247.79 150.74 L 248.6 145.5 L 249.88 145.24 L 264.84 142.25 L 271.33 115.46 L 272.95 89.49 L 259.68 79.34 L 259.15 78.93 L 261.59 59.45 L 262.92 59.87 L 302.99 72.44 L 340.33 62.7 L 341.85 64.73 L 350.07 75.69 L 357.87 78.61 L 357.38 78.93 L 356.57 90.3 L 357.59 90.6 L 351.7 93.55 L 345.2 102.48 L 346.04 103.14 L 338.71 102.48 L 328.16 120.33 L 323.28 128.45 L 324.91 140.63 L 328.16 148.75 L 328.41 148.92 L 319.23 163.36 L 325.99 177.65 L 295.68 195.83 L 294.06 210.44 L 300.78 217.91 Z" stroke="#FFFFFF" stroke-width="4.0201" stroke-dasharray="" stroke-dashoffset="1" stroke-opacity="1" fill="#548235" fill-opacity="1"/><path d=" M 249.88 145.24 L 252.66 124.39 L 248.6 109.78 L 249.41 90.3 L 253.78 85.64 L 259.68 79.34 L 272.95 89.49 L 271.33 115.46 L 264.84 142.25 L 249.88 145.24 Z" stroke="#FFFFFF" stroke-width="4.0201" stroke-dasharray="" stroke-dashoffset="1" stroke-opacity="1" fill="#548235" fill-opacity="1"/><path d=" M 320.85 22.92 L 335.78 45.64 L 336.27 45.65 L 344.39 54.58 L 341.85 64.73 L 340.33 62.7 L 302.99 72.44 L 262.92 59.87 L 260.93 45.88 L 260.78 44.84 L 272.45 44.96 L 311.11 1 L 320.85 22.92 Z" stroke="#FFFFFF" stroke-width="4.0201" stroke-dasharray="" stroke-dashoffset="1" stroke-opacity="1" fill="#548235" fill-opacity="1"/><path d=" M 246.98 156 L 246.98 156.05 L 264.02 165.8 L 267.27 193.4 L 267.27 234.8 L 283.51 236.42 L 300.78 217.91 L 301.37 218.56 L 311.11 205.57 L 324.1 198.27 L 342.77 212.88 L 366.31 241.29 L 382.55 255.91 L 386 256.97 L 386.93 258.94 L 387.42 259.96 L 395.54 259.96 L 393.1 206.39 L 398.78 185.28 L 399.23 174.08 L 400.41 178.78 L 402.76 112.94 L 405.28 113.03 L 403.65 107.35 L 406.08 102.98 L 407.71 103.29 L 409.34 90.3 L 419.05 85.44 L 424.76 90.3 L 418.27 100.85 L 415.83 124.39 L 413.39 137.38 L 413.39 159.3 L 414.61 159.14 L 409.34 177.97 L 409.34 195.02 L 409.34 208.82 L 411.86 208.9 L 412.58 223.43 L 412.98 223.45 L 410.96 225.87 L 410.17 263.99 L 407.71 268.08 L 409.78 270.41 L 403.39 277.86 L 396.35 276.2 L 382.8 276.2 L 380.92 272.14 L 367.93 262.4 L 359 252.66 L 346.83 239.67 L 334.65 226.68 L 319.23 215.32 L 312.73 224.25 L 308.67 236.42 L 303.8 248.6 L 291.62 255.09 L 279.45 259.96 L 262.4 255.09 L 251.85 246.98 L 248.6 236.42 L 248.6 219.37 L 250.22 196.64 L 249.41 174.73 L 242.92 168.23 L 242.34 169.55 L 246.98 156 Z" stroke="#FFFFFF" stroke-width="4.0201" stroke-dasharray="" stroke-dashoffset="1" stroke-opacity="1" fill="#548235" fill-opacity="1"/><path d=" M 253.78 85.64 L 237.23 82.99 L 226.68 78.12 L 213.69 70 L 213.78 69.55 L 215.32 61.89 L 242.1 47.27 L 260.93 45.88 L 262.92 59.87 L 261.59 59.45 L 259.15 78.93 L 259.68 79.34 L 253.78 85.64 Z" stroke="#FFFFFF" stroke-width="4.0201" stroke-dasharray="" stroke-dashoffset="1" stroke-opacity="1" fill="#548235" fill-opacity="1"/><path d=" M 247.79 150.74 L 238.05 151.18 L 199.08 181.22 L 193.4 185.28 L 188.53 215.32 L 173.91 230.74 L 167.42 242.1 L 162.55 258.34 L 163.36 276.2 L 152.81 285.13 L 130.08 291.62 L 107.35 307.05 L 94.36 325.72 L 77.31 375.24 L 83.8 395.54 L 103.29 434.5 L 129.26 457.23 L 137.95 470.26 L 143.88 479.15 L 131.7 490.57 L 130.89 491.33 L 124.12 485.92 L 122.77 484.83 L 128.45 479.15 L 104.1 451.55 L 81.37 423.14 L 64.32 396.35 L 61.07 367.93 L 68.38 341.14 L 84.62 319.23 L 96.79 305.43 L 108.97 287.57 L 125.21 281.88 L 139.01 259.96 L 152.81 243.73 L 151.18 201.51 L 158.49 200.7 L 161.35 202.85 L 164.98 205.57 L 181.22 190.96 L 182.03 178.78 L 188.53 165.8 L 198.27 143.07 L 199.89 97.6 L 212.88 70 L 213.78 69.55 L 213.69 70 L 226.68 78.12 L 237.23 82.99 L 253.78 85.64 L 249.41 90.3 L 248.6 109.78 L 252.66 124.39 L 249.88 145.24 L 248.6 145.5 L 247.79 150.74 Z" stroke="#FFFFFF" stroke-width="4.0201" stroke-dasharray="" stroke-dashoffset="1" stroke-opacity="1" fill="#548235" fill-opacity="1"/><path d=" M 124.12 485.92 L 115.46 484.83 L 82.99 456.42 L 50.52 392.29 L 37.53 371.18 L 37.53 354.13 L 48.9 341.14 L 80.56 308.67 L 102.48 280.26 L 125.21 251.03 L 140.63 229.12 L 136.57 192.58 L 151.18 190.15 L 160.92 200.7 L 161.35 202.85 L 158.49 200.7 L 151.18 201.51 L 152.81 243.73 L 139.01 259.96 L 125.21 281.88 L 108.97 287.57 L 96.79 305.43 L 84.62 319.23 L 68.38 341.14 L 61.07 367.93 L 64.32 396.35 L 81.37 423.14 L 104.1 451.55 L 128.45 479.15 L 122.77 484.83 L 124.12 485.92 Z" stroke="#FFFFFF" stroke-width="4.0201" stroke-dasharray="" stroke-dashoffset="1" stroke-opacity="1" fill="#548235" fill-opacity="1"/><path d=" M 180.41 248.6 L 181.06 248.11 L 190.15 241.29 L 201.51 229.93 L 204.76 219.37 L 208.82 192.58 L 222.62 181.22 L 241.73 170.93 L 221.81 216.13 L 221.81 234.04 L 201.51 242.92 L 193.4 247.79 L 180.41 248.6 Z" stroke="#FFFFFF" stroke-width="4.0201" stroke-dasharray="" stroke-dashoffset="1" stroke-opacity="1" fill="#548235" fill-opacity="1"/><path d=" M 221.81 234.04 L 221.81 256.72 L 228.3 276.2 L 235.61 283.51 L 252.66 304.61 L 264.55 313.01 L 263.21 313.54 L 264.09 314.24 L 274.58 322.47 L 286.74 335.61 L 270.52 352.51 L 253.47 353.32 L 240.56 344.52 L 240.48 345.2 L 238.78 344.15 L 216.94 330.59 L 208.82 314.36 L 186.09 296.5 L 177.63 282.64 L 177.16 281.88 L 178.78 248.6 L 181.06 248.11 L 180.41 248.6 L 193.4 247.79 L 201.51 242.92 L 221.81 234.04 Z" stroke="#FFFFFF" stroke-width="4.0201" stroke-dasharray="" stroke-dashoffset="1" stroke-opacity="1" fill="#548235" fill-opacity="1"/><path d=" M 286.74 335.61 L 294.87 344.39 L 311.11 365.5 L 313.48 367.74 L 268.08 371.99 L 259.15 402.84 L 251.85 409.34 L 247.27 421.69 L 247.02 422.36 L 248.6 423.14 L 243.73 429.63 L 238.86 449.11 L 216.94 466.16 L 196.64 473.47 L 175.54 474.28 L 174.92 474.06 L 159.3 468.6 L 145.5 465.35 L 137.38 449.93 L 123.58 429.63 L 113.03 419.89 L 108.16 403.65 L 96.79 390.66 L 91.92 378.49 L 91.11 363.87 L 100.04 348.45 L 113.03 327.34 L 121.96 316.79 L 131.7 307.86 L 150.37 302.18 L 167.42 295.68 L 177.63 282.64 L 186.09 296.5 L 208.82 314.36 L 216.94 330.59 L 238.78 344.15 L 240.48 345.2 L 240.56 344.52 L 253.47 353.32 L 270.52 352.51 L 286.74 335.61 Z" stroke="#FFFFFF" stroke-width="4.0201" stroke-dasharray="" stroke-dashoffset="1" stroke-opacity="1" fill="#548235" fill-opacity="1"/><path d=" M 464.73 563.58 L 466.16 581.44 L 452.36 580.63 L 427.2 587.12 L 425.57 574.94 L 393.1 544.09 L 376.86 524.61 L 367.93 505.94 L 356.01 492.94 L 359.69 481.06 L 359.62 481.02 L 373.62 449.93 L 388.23 440.18 L 402.16 402.2 L 415.02 404.46 L 436.13 410.15 L 455.61 426.38 L 475.09 455.61 L 488.89 475.09 L 493.64 477.07 L 479.96 494.57 L 484.02 505.13 L 477.53 518.12 L 466.97 521.36 L 463.19 530.43 L 462.91 531.11 L 461.93 530.63 L 458.04 538.41 L 464.54 561.14 L 464.73 563.58 Z" stroke="#FFFFFF" stroke-width="4.0201" stroke-dasharray="" stroke-dashoffset="1" stroke-opacity="1" fill="#548235" fill-opacity="1"/><path d=" M 513.96 564.36 L 485.65 563.58 L 464.73 563.58 L 464.54 561.14 L 458.04 538.41 L 461.93 530.63 L 462.91 531.11 L 463.19 530.43 L 466.97 521.36 L 477.53 518.12 L 484.02 505.13 L 479.96 494.57 L 493.64 477.07 L 498.63 479.15 L 514.87 483.21 L 522.76 485.18 L 545.72 492.14 L 546.12 492.27 L 539.22 510 L 528.09 532.26 L 527.86 532.73 L 514.06 549.78 L 514.79 562.91 L 514.87 564.39 L 513.96 564.36 Z" stroke="#FFFFFF" stroke-width="4.0201" stroke-dasharray="" stroke-dashoffset="1" stroke-opacity="1" fill="#548235" fill-opacity="1"/><path d=" M 351.15 395.83 L 361.44 400.41 L 387.42 399.59 L 402.16 402.2 L 388.23 440.18 L 373.62 449.93 L 359.62 481.02 L 359.69 481.06 L 356.01 492.94 L 355.76 493.76 L 353.84 492.84 L 337.09 484.83 L 311.92 487.27 L 298.93 477.53 L 286.75 471.03 L 269.71 464.54 L 266.46 451.55 L 259.96 433.69 L 254.91 425.88 L 247.27 421.69 L 251.85 409.34 L 259.15 402.84 L 268.08 371.99 L 313.48 367.74 L 325.72 379.3 L 345.2 395.54 L 351.15 395.83 Z" stroke="#FFFFFF" stroke-width="4.0201" stroke-dasharray="" stroke-dashoffset="1" stroke-opacity="1" fill="#548235" fill-opacity="1"/><path d=" M 528.09 532.26 L 546.53 531.11 L 566.83 538.41 L 606.6 537.6 L 630.15 543.28 L 648.01 570.88 L 640.7 592.8 L 618.78 621.22 L 617.61 621.15 L 587.93 619.59 L 550.59 612.29 L 511.62 604.98 L 494.57 603.36 L 486.46 600.11 L 486.46 589.83 L 486.46 589.56 L 491.33 579.81 L 508.38 574.13 L 513.96 564.36 L 514.87 564.39 L 514.79 562.91 L 514.06 549.78 L 527.86 532.73 L 528.09 532.26 Z" stroke="#FFFFFF" stroke-width="4.0201" stroke-dasharray="" stroke-dashoffset="1" stroke-opacity="1" fill="#548235" fill-opacity="1"/><path d=" M 353.84 492.84 L 346.86 507.5 L 346.83 507.56 L 346.45 507.38 L 335.46 528.67 L 320.04 547.34 L 316.79 547.34 L 315.42 548.03 L 294.06 558.71 L 292.44 566.83 L 277.01 578.19 L 261.98 578.87 L 259.15 579 L 247.59 579 L 246.98 579 L 250.22 566.01 L 246.16 550.59 L 221 540.85 L 208.01 531.11 L 200.7 518.93 L 192.59 503.5 L 174.92 474.06 L 175.54 474.28 L 196.64 473.47 L 216.94 466.16 L 238.86 449.11 L 243.73 429.63 L 248.6 423.14 L 247.02 422.36 L 247.27 421.69 L 254.91 425.88 L 259.96 433.69 L 266.46 451.55 L 269.71 464.54 L 286.75 471.03 L 298.93 477.53 L 311.92 487.27 L 337.09 484.83 L 353.84 492.84 Z" stroke="#FFFFFF" stroke-width="4.0201" stroke-dasharray="" stroke-dashoffset="1" stroke-opacity="1" fill="#548235" fill-opacity="1"/><path d=" M 340.33 566.83 L 376.86 524.61 L 393.1 544.09 L 425.57 574.94 L 427.2 587.12 L 452.36 580.63 L 466.16 581.44 L 464.73 563.58 L 485.65 563.58 L 513.96 564.36 L 508.38 574.13 L 491.33 579.81 L 486.46 589.56 L 486.46 589.83 L 476.72 588.74 L 463.73 593.61 L 462.1 604.98 L 460.7 605.14 L 454.8 605.79 L 445.05 600.11 L 425.57 598.49 L 406.09 586.31 L 367.93 566.83 L 340.33 566.83 Z" stroke="#FFFFFF" stroke-width="4.0201" stroke-dasharray="" stroke-dashoffset="1" stroke-opacity="1" fill="#548235" fill-opacity="1"/><path d=" M 617.61 621.15 L 622.03 628.52 L 629.33 639.89 L 660.99 651.25 L 674.79 667.49 L 673.23 667.99 L 634.2 680.48 L 589.56 681.29 L 576.25 675.17 L 548.97 662.62 L 521.36 639.08 L 493.76 617.16 L 474.28 612.29 L 460.7 605.14 L 462.1 604.98 L 463.73 593.61 L 476.72 588.74 L 486.46 589.83 L 486.46 600.11 L 494.57 603.36 L 511.62 604.98 L 550.59 612.29 L 587.93 619.59 L 617.61 621.15 Z" stroke="#FFFFFF" stroke-width="4.0201" stroke-dasharray="" stroke-dashoffset="1" stroke-opacity="1" fill="#548235" fill-opacity="1"/><path d=" M 775.52 620.75 L 764.09 626.09 L 730.81 647.19 L 712.95 654.5 L 674.79 668.3 L 674.7 668.28 L 673.23 667.99 L 674.79 667.49 L 660.99 651.25 L 629.33 639.89 L 622.03 628.52 L 617.61 621.15 L 618.78 621.22 L 640.7 592.8 L 648.01 570.88 L 630.15 543.28 L 606.6 537.6 L 566.83 538.41 L 546.53 531.11 L 528.09 532.26 L 539.22 510 L 546.12 492.27 L 562.77 497.82 L 611.81 501.54 L 644.76 511.62 L 677.23 518.93 L 716.2 514.87 L 759.22 501.88 L 770.89 505.77 L 773.83 535.16 L 783.58 556.27 L 784.39 584.68 L 779.52 596.05 L 773.02 610.66 L 776.27 620.4 L 775.52 620.75 Z" stroke="#FFFFFF" stroke-width="4.0201" stroke-dasharray="" stroke-dashoffset="1" stroke-opacity="1" fill="#548235" fill-opacity="1"/><path d=" M 775.52 620.75 L 787.63 639.89 L 794.94 665.86 L 781.14 691.84 L 761.66 701.58 L 725.13 727.56 L 704.02 753.54 L 673.17 795.75 L 671.95 794.03 L 659.37 776.27 L 651.25 769.78 L 629.33 751.1 L 630.17 750 L 642.32 734.06 L 663.43 700.77 L 674.7 668.28 L 674.79 668.3 L 712.95 654.5 L 730.81 647.19 L 764.09 626.09 L 775.52 620.75 Z" stroke="#FFFFFF" stroke-width="4.0201" stroke-dasharray="" stroke-dashoffset="1" stroke-opacity="1" fill="#548235" fill-opacity="1"/><path d=" M 630.17 750 L 622.03 745.42 L 594.43 734.06 L 572.51 726.75 L 557.9 721.07 L 501.07 686.97 L 481.59 680.48 L 479.88 679.22 L 466.16 669.11 L 449.93 660.18 L 422.39 638.44 L 419.08 635.83 L 423.95 629.33 L 435.31 629.33 L 449.93 620.4 L 471.84 615.53 L 479.15 621.22 L 493.76 626.09 L 498.63 640.7 L 480.77 652.88 L 488.08 659.37 L 491.33 666.68 L 512.43 669.92 L 536.79 682.1 L 560.33 680.48 L 576.25 675.17 L 589.56 681.29 L 634.2 680.48 L 673.23 667.99 L 674.7 668.28 L 663.43 700.77 L 642.32 734.06 L 630.17 750 Z" stroke="#FFFFFF" stroke-width="4.0201" stroke-dasharray="" stroke-dashoffset="1" stroke-opacity="1" fill="#548235" fill-opacity="1"/><path d=" M 137.95 470.26 L 147.12 475.9 L 158.49 479.96 L 177.97 499.45 L 191.77 533.54 L 204.76 543.28 L 216.94 552.21 L 241.29 566.01 L 236.42 591.18 L 218.56 561.14 L 195.83 547.34 L 168.23 531.11 L 147.12 512.43 L 131.7 493.76 L 131.7 490.57 L 143.88 479.15 L 137.95 470.26 Z" stroke="#FFFFFF" stroke-width="4.0201" stroke-dasharray="" stroke-dashoffset="1" stroke-opacity="1" fill="#548235" fill-opacity="1"/><path d=" M 422.39 638.44 L 415.83 639.08 L 404.46 639.08 L 385.79 622.03 L 382.55 605.79 L 362.25 587.12 L 367.07 572.48 L 367.93 566.83 L 406.09 586.31 L 425.57 598.49 L 445.05 600.11 L 454.8 605.79 L 460.7 605.14 L 474.28 612.29 L 493.76 617.16 L 521.36 639.08 L 548.97 662.62 L 576.25 675.17 L 560.33 680.48 L 536.79 682.1 L 512.43 669.92 L 491.33 666.68 L 488.08 659.37 L 480.77 652.88 L 498.63 640.7 L 493.76 626.09 L 479.15 621.22 L 471.84 615.53 L 449.93 620.4 L 435.31 629.33 L 423.95 629.33 L 419.08 635.83 L 422.39 638.44 Z" stroke="#FFFFFF" stroke-width="4.0201" stroke-dasharray="" stroke-dashoffset="1" stroke-opacity="1" fill="#548235" fill-opacity="1"/><path d=" M 247.79 150.74 L 246.98 156 L 242.34 169.55 L 241.73 170.93 L 222.62 181.22 L 208.82 192.58 L 204.76 219.37 L 201.51 229.93 L 190.15 241.29 L 181.06 248.11 L 180.41 248.6 L 178.23 259.94 L 177.16 281.88 L 177.63 282.64 L 167.42 295.68 L 150.37 302.18 L 131.7 307.86 L 121.96 316.79 L 113.03 327.34 L 100.04 348.45 L 91.11 363.87 L 91.92 378.49 L 96.79 390.66 L 108.16 403.65 L 113.03 419.89 L 123.58 429.63 L 137.38 449.93 L 145.5 465.35 L 159.3 468.6 L 174.92 474.06 L 192.59 503.5 L 200.7 518.93 L 208.01 531.11 L 221 540.85 L 246.16 550.59 L 250.22 566.01 L 246.98 579 L 247.59 579 L 242.96 593.47 L 236.55 590.54 L 241.29 566.01 L 216.94 552.21 L 204.76 543.28 L 191.77 533.54 L 177.97 499.45 L 158.49 479.96 L 147.12 475.9 L 137.95 470.26 L 129.26 457.23 L 103.29 434.5 L 83.8 395.54 L 77.31 375.24 L 94.36 325.72 L 107.35 307.05 L 130.08 291.62 L 152.81 285.13 L 163.36 276.2 L 162.55 258.34 L 167.42 242.1 L 173.91 230.74 L 188.53 215.32 L 193.4 185.28 L 199.08 181.22 L 238.05 151.18 L 239.4 151.12 L 240.76 151.06 L 247.79 150.74 Z" stroke="#FFFFFF" stroke-width="4.0201" stroke-dasharray="" stroke-dashoffset="1" stroke-opacity="1" fill="#548235" fill-opacity="1"/><path d=" M 671.95 794.03 L 651.25 827.41 L 612.29 876.12 L 619.59 923.21 L 614.72 939.44 L 601.73 962.17 L 594.43 985.71 L 563.58 1010.88 L 553.02 1024.68 L 534.35 1048.22 L 518.93 1027.93 L 512.43 1006.82 L 500.26 995.46 L 467.79 970.29 L 449.11 948.37 L 429.63 935.38 L 429.88 933.06 L 431.25 919.96 L 434.5 861.51 L 443.43 811.18 L 441 787.63 L 431.25 765.72 L 440.18 755.16 L 444.24 733.24 L 447.49 708.08 L 463.73 691.03 L 479.88 679.22 L 481.59 680.48 L 501.07 686.97 L 557.9 721.07 L 572.51 726.75 L 594.43 734.06 L 622.03 745.42 L 630.17 750 L 629.33 751.1 L 651.25 769.78 L 659.37 776.27 L 671.95 794.03 Z" stroke="#FFFFFF" stroke-width="4.0201" stroke-dasharray="" stroke-dashoffset="1" stroke-opacity="1" fill="#548235" fill-opacity="1"/><path d=" M 229.24 626.61 L 225.87 621.22 L 226.18 620.89 L 241.29 604.98 L 247.04 593.48 L 268.08 592.8 L 277.01 595.24 L 298.54 594.24 L 299.74 609.85 L 317.6 642.32 L 350.89 661.81 L 347.64 671.55 L 350.07 683.72 L 336.27 694.28 L 311.11 681.29 L 289.19 642.32 L 277.01 645.57 L 259.15 644.76 L 247.79 639.08 L 247.79 626.09 L 241.29 622.84 L 229.24 626.61 Z" stroke="#FFFFFF" stroke-width="4.0201" stroke-dasharray="" stroke-dashoffset="1" stroke-opacity="1" fill="#548235" fill-opacity="1"/><path d=" M 322.19 841.66 L 301.37 847.71 L 280.26 854.2 L 280.21 853.2 L 278.64 819.29 L 274.58 801.44 L 272.14 782.76 L 300.55 781.14 L 314.36 790.92 L 314.36 809.55 L 322.19 841.66 Z" stroke="#FFFFFF" stroke-width="4.0201" stroke-dasharray="" stroke-dashoffset="1" stroke-opacity="1" fill="#548235" fill-opacity="1"/><path d=" M 128.2 618.17 L 154.43 618.78 L 184.47 624.46 L 195.83 624.46 L 211.26 623.65 L 226.18 620.89 L 225.87 621.22 L 229.24 626.61 L 228.3 626.9 L 229.53 628.78 L 208.01 648.82 L 203.95 665.05 L 210.44 696.71 L 201.51 699.96 L 190.15 681.29 L 173.91 654.5 L 161.74 643.95 L 141.44 634.2 L 130.08 618.78 L 128.2 618.17 Z" stroke="#FFFFFF" stroke-width="4.0201" stroke-dasharray="" stroke-dashoffset="1" stroke-opacity="1" fill="#548235" fill-opacity="1"/><path d=" M 362.25 587.12 L 376.82 600.52 L 382.55 605.79 L 371.28 617.15 L 356.55 604.8 L 334.81 590.84 L 344.39 587.12 L 352.08 587.12 L 357.14 587.12 L 362.25 587.12 Z" stroke="#FFFFFF" stroke-width="4.0201" stroke-dasharray="" stroke-dashoffset="1" stroke-opacity="1" fill="#548235" fill-opacity="1"/><path d=" M 429.88 933.06 L 415.02 924.02 L 397.97 908.59 L 379.3 876.12 L 363.06 859.89 L 322.47 842.84 L 322.19 841.66 L 314.36 809.55 L 314.36 790.92 L 314.36 788.45 L 308.67 763.28 L 290 731.62 L 288.38 719.44 L 229.53 628.78 L 228.3 626.9 L 229.24 626.61 L 241.29 622.84 L 247.79 626.09 L 247.79 639.08 L 259.15 644.76 L 277.01 645.57 L 289.19 642.32 L 311.11 681.29 L 336.27 694.28 L 350.07 683.72 L 347.64 671.55 L 350.89 661.81 L 317.6 642.32 L 299.74 609.85 L 298.54 594.24 L 323.1 593.11 L 323.12 593.15 L 322.54 602.13 L 346.14 628.92 L 359.22 647.07 L 356.55 604.8 L 371.28 617.15 L 382.55 605.79 L 376.82 600.52 L 382.55 605.79 L 385.79 622.03 L 404.46 639.08 L 415.83 639.08 L 422.39 638.44 L 449.93 660.18 L 466.16 669.11 L 479.88 679.22 L 463.73 691.03 L 447.49 708.08 L 444.24 733.24 L 440.18 755.16 L 431.25 765.72 L 441 787.63 L 443.43 811.18 L 434.5 861.51 L 431.25 919.96 L 429.88 933.06 Z" stroke="#FFFFFF" stroke-width="4.0201" stroke-dasharray="" stroke-dashoffset="1" stroke-opacity="1" fill="#548235" fill-opacity="1"/><path d=" M 323.12 593.15 L 329.78 592.8 L 334.81 590.84 L 356.55 604.8 L 359.22 647.07 L 346.14 628.92 L 322.54 602.13 L 323.12 593.15 Z" stroke="#FFFFFF" stroke-width="4.0201" stroke-dasharray="" stroke-dashoffset="1" stroke-opacity="1" fill="#548235" fill-opacity="1"/><path d=" M 116.75 691.45 L 125.34 696.44 L 122.9 703.93 L 120.95 711.86 L 118.39 721.61 L 114.92 739.31 L 99.23 739.74 L 75.69 721.07 L 59.32 697.77 L 80.38 699.88 L 96.52 694.26 L 110.12 694.46 L 116.75 691.45 Z" stroke="#FFFFFF" stroke-width="4.0201" stroke-dasharray="" stroke-dashoffset="1" stroke-opacity="1" fill="#548235" fill-opacity="1"/><path d=" M 116.75 691.45 L 110.12 694.46 L 96.52 694.26 L 80.38 699.88 L 59.32 697.77 L 46.29 678.94 L 72.39 678.49 L 90.66 667.28 L 98.05 658.69 L 106.01 639.42 L 113.92 639.36 L 121.66 652.8 L 116.75 691.45 Z" stroke="#FFFFFF" stroke-width="4.0201" stroke-dasharray="" stroke-dashoffset="1" stroke-opacity="1" fill="#548235" fill-opacity="1"/><path d=" M 227.08 780.89 L 182.6 821.9 L 173.91 807.93 L 161.74 794.13 L 150.37 781.95 L 137.38 773.02 L 117.9 747.86 L 99.23 739.74 L 114.92 739.31 L 118.39 721.61 L 120.95 711.86 L 122.9 703.93 L 125.34 696.44 L 116.75 691.45 L 113.49 692.93 L 116.75 691.45 L 121.66 652.8 L 113.92 639.36 L 106.01 639.42 L 98.05 658.69 L 90.66 667.28 L 72.39 678.49 L 46.29 678.94 L 26.98 651.25 L 21.3 635.83 L 1 596.05 L 26.17 619.59 L 44.03 643.13 L 52.14 647.19 L 64.32 648.82 L 82.99 632.58 L 79.74 609.85 L 83.8 603.36 L 97.6 608.23 L 128.2 618.17 L 130.08 618.78 L 141.44 634.2 L 161.74 643.95 L 173.91 654.5 L 190.15 681.29 L 201.51 699.96 L 208.22 697.52 L 227.08 780.89 Z" stroke="#FFFFFF" stroke-width="4.0201" stroke-dasharray="" stroke-dashoffset="1" stroke-opacity="1" fill="#548235" fill-opacity="1"/><path d=" M 302.99 580.63 L 311.92 569.26 L 340.33 566.83 L 367.93 566.83 L 367.07 572.48 L 362.25 587.12 L 357.14 587.12 L 352.08 587.12 L 344.39 587.12 L 334.81 590.84 L 329.78 592.8 L 323.1 593.11 L 298.54 594.24 L 302.99 580.63 Z" stroke="#FFFFFF" stroke-width="4.0201" stroke-dasharray="" stroke-dashoffset="1" stroke-opacity="1" fill="#548235" fill-opacity="1"/><path d=" M 302.99 580.63 L 298.54 594.24 L 277.01 595.24 L 268.08 592.8 L 247.04 593.48 L 242.96 593.47 L 246.98 579 L 259.15 579 L 261.98 578.87 L 277.82 584.68 L 289.19 586.31 L 302.99 580.63 Z" stroke="#FFFFFF" stroke-width="4.0201" stroke-dasharray="" stroke-dashoffset="1" stroke-opacity="1" fill="#548235" fill-opacity="1"/><path d=" M 367.93 505.94 L 311.92 569.26 L 302.99 580.63 L 289.19 586.31 L 277.82 584.68 L 261.98 578.87 L 277.01 578.19 L 292.44 566.83 L 294.06 558.71 L 315.42 548.03 L 316.79 547.34 L 320.04 547.34 L 335.46 528.67 L 346.45 507.38 L 346.83 507.56 L 346.86 507.5 L 353.84 492.84 L 355.76 493.76 L 356.01 492.94 L 367.93 505.94 Z" stroke="#FFFFFF" stroke-width="4.0201" stroke-dasharray="" stroke-dashoffset="1" stroke-opacity="1" fill="#548235" fill-opacity="1"/><path d=" M 376.86 524.61 L 340.33 566.83 L 311.92 569.26 L 367.93 505.94 L 376.86 524.61 Z" stroke="#FFFFFF" stroke-width="4.0201" stroke-dasharray="" stroke-dashoffset="1" stroke-opacity="1" fill="#548235" fill-opacity="1"/><path d=" M 245.35 861.58 L 208.22 697.52 L 210.44 696.71 L 203.95 665.05 L 208.01 648.82 L 229.53 628.78 L 288.38 719.44 L 290 731.62 L 308.67 763.28 L 314.36 788.45 L 314.36 790.92 L 300.55 781.14 L 272.14 782.76 L 274.58 801.44 L 278.64 819.29 L 280.21 853.2 L 246.98 861.51 L 245.35 861.58 Z" stroke="#FFFFFF" stroke-width="4.0201" stroke-dasharray="" stroke-dashoffset="1" stroke-opacity="1" fill="#548235" fill-opacity="1"/><path d=" M 201.06 846.95 L 228.52 787.25 L 245.35 861.58 L 228.3 862.32 L 201.06 846.95 Z" stroke="#FFFFFF" stroke-width="4.0201" stroke-dasharray="" stroke-dashoffset="1" stroke-opacity="1" fill="#548235" fill-opacity="1"/><path d=" M 182.6 821.9 L 227.08 780.89 L 228.52 787.25 L 201.06 846.95 L 196.64 844.46 L 182.6 821.9 Z" stroke="#FFFFFF" stroke-width="4.0201" stroke-dasharray="" stroke-dashoffset="1" stroke-opacity="1" fill="#548235" fill-opacity="1"/></g></svg>