<!--?xml version="1.0" encoding="utf-8"?-->
<!-- Generator: Adobe Illustrator 18.1.1, SVG Export Plug-In . SVG Version: 6.00 Build 0)  -->

<svg version="1.1" id="_x32_" xmlns="http://www.w3.org/2000/svg" xmlns:xlink="http://www.w3.org/1999/xlink" x="0px" y="0px" viewBox="0 0 512 512" style="width: 48px; height: 48px; opacity: 1;" xml:space="preserve">
<style type="text/css">
	.st0{fill:#4B4B4B;}
</style>
<g>
	<path class="st0" d="M497.534,109.858c-19.454-29.135-47.214-51.588-79.667-66.607c-32.484-15.033-69.706-22.772-108.91-22.787
		c-30.239,0.007-61.674,4.614-93.085,14.171C152.792,53.811,99.176,90.264,61.02,135.699C22.919,181.111,0.039,235.831,0,291.646
		c0,14.14,1.484,28.327,4.576,42.358c10.69,48.854,39.561,88.866,78.804,115.88c39.267,27.091,88.742,41.636,141.977,41.651
		c29.563,0,60.306-4.49,91.182-13.86c61.72-18.778,114.365-54.059,152.341-98.127c4.561-5.345,7.739-11.358,10.077-17.994
		c2.3-6.642,3.668-13.923,3.675-21.66c0-6.806-1.088-14.009-3.83-21.117c-4.025-10.675-12.245-20.946-23.922-27.566
		c-11.669-6.697-26.105-9.976-43.252-9.976c-1.833,0-3.768,0.031-5.788,0.124h-0.117c-0.808,0.031-1.585,0.047-2.315,0.047
		c-13.418-0.062-21.684-4.126-26.967-8.989c-5.252-4.926-7.66-11.072-7.676-16.914c0.055-5.344,1.865-10.302,6.301-14.746
		c4.468-4.389,12.128-8.662,25.492-9.883l-1.74-19.812l1.748,19.812c34.924-3.146,61.3-10.946,80.646-23.914
		c9.618-6.503,17.434-14.475,22.78-23.743c5.36-9.238,8.041-19.688,8.01-29.958C511.977,137.782,506.36,123.098,497.534,109.858z
		 M469.532,163.343c-1.429,2.47-3.581,5.12-6.898,7.886c-4.957,4.141-12.618,8.46-23.487,12.05
		c-10.846,3.605-24.839,6.449-42.079,7.972c-20.674,1.771-37.976,9.323-49.964,21.21c-12.027,11.825-18.173,27.596-18.119,43.042
		c-0.015,16.969,7.156,33.727,20.317,45.995c13.138,12.33,32.134,19.75,54.106,19.688c1.384,0,2.75-0.031,4.11-0.078l0.179-0.007
		c1.313-0.063,2.618-0.086,3.931-0.086c8.065,0,14.048,1.041,18.258,2.432c6.348,2.167,8.749,4.599,10.435,6.992
		c1.616,2.416,2.525,5.579,2.532,9.456c0.008,2.882-0.568,6.013-1.468,8.592c-0.87,2.58-2.16,4.584-2.649,5.104
		c-32.927,38.249-79.341,69.497-133.75,86.015c-27.231,8.266-54.098,12.151-79.628,12.151c-46.01,0-87.583-12.633-119.368-34.605
		c-31.807-22.05-53.997-53.002-62.566-91.694c-2.455-11.156-3.644-22.454-3.644-33.812c-0.039-44.705,18.607-90.948,51.713-130.378
		c33.051-39.414,80.326-71.696,135.948-88.578c27.752-8.437,55.326-12.446,81.516-12.439c33.959-0.007,65.549,6.752,92.19,19.097
		c26.665,12.361,48.334,30.192,63.305,52.606c5.641,8.422,7.8,15.81,7.769,21.304C472.19,156.972,471.413,160.017,469.532,163.343z" style="fill: rgb(255, 255, 255);"></path>
	<path class="st0" d="M400.611,103.861c-9.222,0-18.235,3.737-24.754,10.248c-6.518,6.526-10.255,15.539-10.255,24.761
		s3.737,18.227,10.255,24.753c6.519,6.518,15.532,10.256,24.754,10.256c9.222,0,18.227-3.738,24.753-10.256
		c6.518-6.526,10.256-15.53,10.256-24.753s-3.738-18.235-10.256-24.761C418.838,107.597,409.833,103.861,400.611,103.861z" style="fill: rgb(255, 255, 255);"></path>
	<path class="st0" d="M99.254,267.234c15.834,5.252,32.95-3.325,38.217-19.174c5.26-15.842-3.326-32.95-19.175-38.218
		c-15.842-5.26-32.95,3.318-38.217,19.167C74.819,244.851,83.404,261.959,99.254,267.234z" style="fill: rgb(255, 255, 255);"></path>
	<path class="st0" d="M96.293,328.643c-10.877,11.484-10.38,29.609,1.11,40.486c11.484,10.869,29.617,10.364,40.495-1.12
		c10.869-11.49,10.364-29.616-1.119-40.485C125.288,316.648,107.162,317.153,96.293,328.643z" style="fill: rgb(255, 255, 255);"></path>
	<path class="st0" d="M158.463,125.987v0.008c-14.264,10.264-17.512,30.146-7.249,44.418c10.263,14.265,30.153,17.512,44.418,7.249
		c14.265-10.264,17.512-30.153,7.248-44.417C192.617,118.98,172.736,115.732,158.463,125.987z" style="fill: rgb(255, 255, 255);"></path>
	<path class="st0" d="M287.94,146.615c18.328-2.129,31.465-18.716,29.329-37.044c-2.129-18.328-18.717-31.458-37.045-29.33
		c-18.336,2.129-31.466,18.709-29.329,37.044C253.024,135.614,269.604,148.752,287.94,146.615z" style="fill: rgb(255, 255, 255);"></path>
	<path class="st0" d="M280.318,337.695c-7.901,7.902-12.431,18.833-12.431,30.014c0,11.179,4.53,22.088,12.431,29.997
		c7.894,7.901,18.826,12.431,29.998,12.431c11.18,0,22.104-4.53,30.005-12.431c7.902-7.91,12.431-18.818,12.431-29.997
		c0-11.18-4.529-22.112-12.431-30.014c-7.901-7.894-18.825-12.423-30.005-12.423C299.144,325.272,288.211,329.801,280.318,337.695z" style="fill: rgb(255, 255, 255);"></path>
</g>
</svg>
