<!--?xml version="1.0" encoding="utf-8"?-->
<!-- Generator: Adobe Illustrator 15.1.0, SVG Export Plug-In . SVG Version: 6.00 Build 0)  -->

<svg version="1.1" id="_x32_" xmlns="http://www.w3.org/2000/svg" xmlns:xlink="http://www.w3.org/1999/xlink" x="0px" y="0px" width="512px" height="512px" viewBox="0 0 512 512" style="width: 48px; height: 48px; opacity: 1;" xml:space="preserve">
<style type="text/css">

	.st0{fill:#4B4B4B;}

</style>
<g>
	<path class="st0" d="M332.859,204.406l-32.266-13.516c-4.594,8.609-9.813,17.766-15.422,27.297l37.969,15.891v233.578
		l-134.281-56.234V296.266l-2.922-4.063c-1.563-2.172-7.875-11.078-16.531-23.984v143.203L40.969,465.203V231.641l84.391-35.359
		c-1.875-3.438-3.734-6.906-5.547-10.375c-3.188-6.125-5.984-11.875-8.594-17.438L9.844,210.922V512l169.281-70.906l153.734,64.375
		l169.297-70.891V133.5L332.859,204.406z M471.031,413.875l-128.438,53.781V234.078l128.438-53.781V413.875z" style="fill: rgb(255, 255, 255);"></path>
	<path class="st0" d="M134.047,178.5c26.719,51.25,64.703,104.047,64.922,104.344l12.563,17.484l12.547-17.484
		c0.156-0.188,22.281-31,44.578-68.188c11.172-18.656,22.375-38.875,31-58c4.313-9.578,7.969-18.875,10.656-27.75
		c2.656-8.891,4.375-17.313,4.406-25.688C314.703,46.219,268.531,0.016,211.531,0C154.5,0.016,108.328,46.219,108.328,103.219
		c0.016,8.375,1.766,16.797,4.422,25.688C117.438,144.406,125.125,161.359,134.047,178.5z M160.406,52.094
		C173.547,39,191.516,30.938,211.531,30.906c20.016,0.031,37.984,8.094,51.109,21.188c13.109,13.141,21.156,31.094,21.172,51.125
		c0.031,3.734-0.969,9.734-3.109,16.781c-3.719,12.422-10.703,28.109-19.125,44.219c-12.594,24.188-28.313,49.484-40.828,68.594
		c-3.359,5.125-6.453,9.75-9.219,13.859c-8.75-12.922-20.875-31.453-32.75-51.484c-10.406-17.547-20.578-36.219-27.953-52.938
		c-3.703-8.328-6.688-16.156-8.672-22.938c-2.016-6.75-2.938-12.484-2.922-16.094C139.25,83.188,147.313,65.234,160.406,52.094z" style="fill: rgb(255, 255, 255);"></path>
	<path class="st0" d="M211.531,136.781c18.531,0,33.563-15.031,33.563-33.563c0-18.547-15.031-33.563-33.563-33.563
		s-33.563,15.016-33.563,33.563C177.969,121.75,193,136.781,211.531,136.781z" style="fill: rgb(255, 255, 255);"></path>
</g>
</svg>
